<svg id="Layer_1" data-name="Layer 1" xmlns="http://www.w3.org/2000/svg" viewBox="0 0 100 100"><defs><style>.cls-1{fill:#fff;}</style></defs><path class="cls-1" d="M98,15.16a6.12,6.12,0,0,0-5.41-1.73L6.18,25.15A6.81,6.81,0,0,0,1.7,27.67,5.88,5.88,0,0,0,.52,32.39L6.19,63.1a7.79,7.79,0,0,0,7,6L48,71.69l-1,8.77a4.54,4.54,0,0,0,1,4,4.19,4.19,0,0,0,3.1,1.31,5.51,5.51,0,0,0,3.46-1.31L71.23,72.07l15-.07a7.16,7.16,0,0,0,7.19-5.92l6-46.46A5.35,5.35,0,0,0,98,15.16ZM86.67,65.33a.59.59,0,0,1-.43.35H71.17a6.22,6.22,0,0,0-2.91.7l-14,10.21.65-5.76a4.35,4.35,0,0,0-.9-3.67c-1.27-1.47-3.11-1.6-4.46-1.68l-35.8-2.69A1.24,1.24,0,0,1,12.9,62L7.16,31.41,92.54,19.82Z"/><path class="cls-1" d="M13.25,43.75a12.44,12.44,0,0,1,.52-3.7,7,7,0,0,1,1.39-2.69,2.55,2.55,0,0,1,1.92-1,2.57,2.57,0,0,1,1.94,1,.8.8,0,0,1,.19.58,1.28,1.28,0,0,1-.12.53l-1,2.18c-.07.13-.15.2-.24.2a.25.25,0,0,1-.18-.08.93.93,0,0,0-.62-.24,1.1,1.1,0,0,0-.81.41,3,3,0,0,0-.58,1.12,5.11,5.11,0,0,0-.22,1.56,5.46,5.46,0,0,0,.22,1.54,3.06,3.06,0,0,0,.59,1.14,1,1,0,0,0,1.47.14.25.25,0,0,1,.17-.08c.09,0,.16.06.23.18l1.12,2.18a1.23,1.23,0,0,1,.12.55,1,1,0,0,1-.15.54,2.84,2.84,0,0,1-2.14,1.29,2.55,2.55,0,0,1-1.92-1,7,7,0,0,1-1.39-2.7A12.53,12.53,0,0,1,13.25,43.75Z"/><path class="cls-1" d="M20,43.87a12.83,12.83,0,0,1,.51-3.7,7.22,7.22,0,0,1,1.36-2.69,2.44,2.44,0,0,1,1.87-1,2.47,2.47,0,0,1,1.87,1,7.22,7.22,0,0,1,1.36,2.69,13.64,13.64,0,0,1,0,7.39,7.27,7.27,0,0,1-1.36,2.7,2.49,2.49,0,0,1-1.87,1,2.46,2.46,0,0,1-1.87-1,7.27,7.27,0,0,1-1.36-2.7A12.76,12.76,0,0,1,20,43.87Zm5.33-.18a5.43,5.43,0,0,0-.23-1.6,3.41,3.41,0,0,0-.59-1.16,1.07,1.07,0,0,0-.81-.43,1.08,1.08,0,0,0-.82.43,3.08,3.08,0,0,0-.58,1.16,5.93,5.93,0,0,0,0,3.2,3.05,3.05,0,0,0,.58,1.17,1.1,1.1,0,0,0,.82.44,1.08,1.08,0,0,0,.81-.44,3.37,3.37,0,0,0,.59-1.17A5.47,5.47,0,0,0,25.3,43.69Z"/><path class="cls-1" d="M28.64,50.12V37.43a1.15,1.15,0,0,1,.11-.5c.07-.14.16-.21.26-.21h1.58a.32.32,0,0,1,.21.09A.54.54,0,0,1,31,37l1.89,4.12,2-4.1a.51.51,0,0,1,.27-.26,1.78,1.78,0,0,1,.35,0h1.38c.1,0,.18.07.25.21a1.15,1.15,0,0,1,.11.5V50.12a1.3,1.3,0,0,1-.1.52c-.07.14-.16.21-.26.21H35.48c-.11,0-.2-.07-.28-.21a1.14,1.14,0,0,1-.11-.52V42.7l-1.64,4.11c-.14.37-.31.55-.53.55a.42.42,0,0,1-.29-.13.93.93,0,0,1-.21-.35L30.73,42.7v7.42a1.15,1.15,0,0,1-.1.52c-.07.14-.15.21-.25.21H29c-.1,0-.19-.07-.26-.22A1.19,1.19,0,0,1,28.64,50.12Z"/><path class="cls-1" d="M38.67,50.12V37.43a1.15,1.15,0,0,1,.1-.5c.08-.14.16-.21.26-.21h1.59a.37.37,0,0,1,.21.09A.5.5,0,0,1,41,37l1.9,4.12,2-4.1a.51.51,0,0,1,.27-.26,1.69,1.69,0,0,1,.35,0h1.38c.09,0,.18.07.25.21a1.15,1.15,0,0,1,.1.5V50.12a1.15,1.15,0,0,1-.1.52c-.07.14-.15.21-.25.21H45.5q-.15,0-.27-.21a1,1,0,0,1-.12-.52V42.7l-1.64,4.11c-.14.37-.31.55-.52.55a.41.41,0,0,1-.29-.13,1.1,1.1,0,0,1-.22-.35L40.76,42.7v7.42a1.3,1.3,0,0,1-.1.52c-.07.14-.16.21-.26.21H39c-.1,0-.18-.07-.26-.22A1.19,1.19,0,0,1,38.67,50.12Z"/><path class="cls-1" d="M51,40.33V42H53.9c.1,0,.2.08.28.25a1.35,1.35,0,0,1,.13.64v1.75a1.38,1.38,0,0,1-.13.62c-.08.18-.18.27-.28.27H51v1.8h3c.11,0,.21.08.3.25a1.55,1.55,0,0,1,.13.66v1.73a1.55,1.55,0,0,1-.13.64q-.14.27-.3.27H49.22q-.16,0-.3-.27a1.55,1.55,0,0,1-.13-.64V37.69a1.44,1.44,0,0,1,.13-.63c.09-.17.19-.26.3-.26H54c.11,0,.21.09.3.26a1.44,1.44,0,0,1,.13.63v1.76a1.34,1.34,0,0,1-.14.61c-.08.18-.18.27-.29.27Z"/><path class="cls-1" d="M61.77,50.71s-.34-.63-.89-1.78-1.35-2.83-2.42-5.06c-.1-.2-.16-.31-.19-.31s0,0-.05.1a2.11,2.11,0,0,0,0,.29v6a1.26,1.26,0,0,1-.12.57c-.08.16-.17.24-.29.24H56.45c-.13,0-.25-.1-.34-.31a1.72,1.72,0,0,1-.14-.74V37.85a1.9,1.9,0,0,1,.15-.78c.1-.23.22-.35.36-.35h1.26a.37.37,0,0,1,.27.09,1.35,1.35,0,0,1,.25.42l1.53,3.16,1.66,3.4c.06.06.09.1.12.1s.06-.11.06-.33v-6a1.34,1.34,0,0,1,.12-.58c.08-.16.17-.25.27-.25h1.3q.23,0,.39.33a1.58,1.58,0,0,1,.16.74v12a1.6,1.6,0,0,1-.16.73c-.1.21-.22.32-.36.32H62.2a.82.82,0,0,1-.27,0A.51.51,0,0,1,61.77,50.71Z"/><path class="cls-1" d="M70.86,36.78c.11,0,.21.09.3.26a1.17,1.17,0,0,1,.13.57V40a1.33,1.33,0,0,1-.13.61c-.09.17-.19.26-.3.26H69.25v9.12a1.57,1.57,0,0,1-.12.65c-.08.17-.18.26-.29.26H67.48c-.11,0-.21-.08-.29-.25a1.49,1.49,0,0,1-.12-.64l.07-9.14H65.51c-.13,0-.23-.09-.32-.26a1.48,1.48,0,0,1-.13-.61V37.61a1.35,1.35,0,0,1,.13-.59c.09-.16.19-.24.32-.24Z"/><path class="cls-1" d="M74.81,40.33V42h2.88c.11,0,.21.08.29.25a1.35,1.35,0,0,1,.13.64v1.75a1.38,1.38,0,0,1-.13.62c-.08.18-.18.27-.29.27H74.81v1.8h3c.12,0,.22.08.3.25a1.41,1.41,0,0,1,.13.66v1.73a1.41,1.41,0,0,1-.13.64q-.12.27-.3.27H73q-.18,0-.3-.27a1.41,1.41,0,0,1-.13-.64V37.69a1.31,1.31,0,0,1,.13-.63c.08-.17.18-.26.3-.26h4.81c.12,0,.22.09.3.26a1.31,1.31,0,0,1,.13.63v1.76a1.33,1.33,0,0,1-.13.61q-.13.27-.3.27Z"/><path class="cls-1" d="M83.83,49.64a4.57,4.57,0,0,0-.46-1.91,1.35,1.35,0,0,0-.88-.63.42.42,0,0,0-.17,0,.29.29,0,0,0-.17,0v2.6a4.81,4.81,0,0,1,0,.62.66.66,0,0,1-.19.38.71.71,0,0,1-.5.15h-1a.55.55,0,0,1-.5-.23,1.19,1.19,0,0,1-.18-.7V37.47a1,1,0,0,1,.15-.54.47.47,0,0,1,.37-.23h2.32a2.55,2.55,0,0,1,2.26,1,6,6,0,0,1,.8,3.26v.93a6.5,6.5,0,0,1-.31,1.86A6,6,0,0,1,84.69,45v0a3.41,3.41,0,0,1,.79,1.39,9.87,9.87,0,0,1,.41,1.9A12.49,12.49,0,0,1,86,50.12a1.07,1.07,0,0,1-.12.55.39.39,0,0,1-.35.2H84.27a.33.33,0,0,1-.34-.26,2,2,0,0,1-.08-.56C83.84,49.86,83.84,49.72,83.83,49.64Zm-1.52-6.32a1.31,1.31,0,0,0,.86-.33,2.1,2.1,0,0,0,.39-1.54,2.55,2.55,0,0,0-.26-1.3.82.82,0,0,0-.75-.44h-.83v3.61h.59Z"/></svg>