<svg id="Layer_1" data-name="Layer 1" xmlns="http://www.w3.org/2000/svg" viewBox="0 0 100 100"><defs><style>.cls-1,.cls-2{fill:#fff;}.cls-2{font-size:20.18px;font-family:Aquino-Demo, Aquino;letter-spacing:-0.02em;}.cls-3{letter-spacing:0.02em;}.cls-4{letter-spacing:0.03em;}.cls-5{letter-spacing:0.04em;}.cls-6{letter-spacing:0.02em;}</style></defs><path class="cls-1" d="M98,15.16a6.12,6.12,0,0,0-5.41-1.73L6.18,25.15A6.81,6.81,0,0,0,1.7,27.67,5.88,5.88,0,0,0,.52,32.39L6.19,63.1a7.79,7.79,0,0,0,7,6L48,71.69l-1,8.77a4.54,4.54,0,0,0,1,4,4.19,4.19,0,0,0,3.1,1.31,5.51,5.51,0,0,0,3.46-1.31L71.23,72.07l15-.07a7.16,7.16,0,0,0,7.19-5.92l6-46.46A5.35,5.35,0,0,0,98,15.16ZM86.67,65.33a.59.59,0,0,1-.43.35H71.17a6.22,6.22,0,0,0-2.91.7l-14,10.21.65-5.76a4.35,4.35,0,0,0-.9-3.67c-1.27-1.47-3.11-1.6-4.46-1.68l-35.8-2.69A1.24,1.24,0,0,1,12.9,62L7.16,31.41,92.54,19.82Z"/><text class="cls-2" transform="translate(12.84 50.85) scale(0.51 1)">c<tspan class="cls-3" x="13.3" y="0">O</tspan><tspan class="cls-4" x="30.05" y="0">M</tspan><tspan class="cls-5" x="49.89" y="0">M</tspan><tspan class="cls-4" x="69.94" y="0">E</tspan><tspan class="cls-6" x="84.13" y="0">N</tspan><tspan class="cls-4" x="102.53" y="0">TER</tspan></text></svg>