<svg xmlns="http://www.w3.org/2000/svg" viewBox="0 0 91.2 20.78"><defs><style>.cls-1{fill:#fff;}.cls-2{fill:#00bcd4;}</style></defs><g id="Layer_2" data-name="Layer 2"><g id="Layer_1-2" data-name="Layer 1"><path class="cls-1" d="M0,16.24a4.11,4.11,0,0,1,.61-2.19,4.42,4.42,0,0,1,1.64-1.6,4.41,4.41,0,0,1,2.25-.6,4.41,4.41,0,0,1,2.29.63.36.36,0,0,1,.22.34.55.55,0,0,1-.13.32L5.7,14.43a.38.38,0,0,1-.28.12.36.36,0,0,1-.21-.05,1.95,1.95,0,0,0-1.68.11,1.82,1.82,0,0,0-.69.66,1.85,1.85,0,0,0-.25.93,1.74,1.74,0,0,0,.26.91,1.88,1.88,0,0,0,.69.68,1.82,1.82,0,0,0,1,.25,2.05,2.05,0,0,0,.78-.16.35.35,0,0,1,.2-.05.35.35,0,0,1,.27.11l1.32,1.29a.49.49,0,0,1,.14.33.4.4,0,0,1-.18.32,4.67,4.67,0,0,1-2.52.77,4.41,4.41,0,0,1-2.25-.6,4.42,4.42,0,0,1-1.64-1.6A4.18,4.18,0,0,1,0,16.24Z"/><path class="cls-1" d="M7.58,16.32a4.2,4.2,0,0,1,.6-2.2,4.38,4.38,0,0,1,1.6-1.6,4.2,4.2,0,0,1,2.2-.6,4.26,4.26,0,0,1,2.2.6,4.49,4.49,0,0,1,1.61,1.6,4.38,4.38,0,0,1,0,4.39,4.49,4.49,0,0,1-1.61,1.6,4.26,4.26,0,0,1-2.2.6,4.2,4.2,0,0,1-2.2-.6,4.38,4.38,0,0,1-1.6-1.6A4.19,4.19,0,0,1,7.58,16.32Zm6.27-.11a1.75,1.75,0,0,0-.27-1,1.93,1.93,0,0,0-.7-.69,1.82,1.82,0,0,0-.94-.26,1.93,1.93,0,0,0-1,.26,1.9,1.9,0,0,0-.69.69,1.92,1.92,0,0,0-.25,1,2,2,0,0,0,.25.95,1.89,1.89,0,0,0,1.66,1,1.82,1.82,0,0,0,.94-.26,2,2,0,0,0,.7-.7A1.78,1.78,0,0,0,13.85,16.21Z"/><path class="cls-1" d="M17.46,20V12.49a.43.43,0,0,1,.43-.42h1.86a.74.74,0,0,1,.25,0,.46.46,0,0,1,.18.12l2.24,2.44,2.34-2.43a.58.58,0,0,1,.31-.16l.42,0h1.62a.4.4,0,0,1,.29.12.41.41,0,0,1,.13.3V20a.41.41,0,0,1-.12.3.38.38,0,0,1-.3.13H25.5a.44.44,0,0,1-.32-.13A.39.39,0,0,1,25,20V15.62l-1.93,2.45a.74.74,0,0,1-.61.32.68.68,0,0,1-.34-.08.61.61,0,0,1-.26-.21l-2-2.48V20a.41.41,0,0,1-.12.3.38.38,0,0,1-.3.13H17.89a.42.42,0,0,1-.3-.13A.41.41,0,0,1,17.46,20Z"/><path class="cls-1" d="M28.93,20V12.49a.43.43,0,0,1,.43-.42h1.86a.85.85,0,0,1,.26,0,.7.7,0,0,1,.18.12l2.23,2.44,2.34-2.43a.58.58,0,0,1,.32-.16l.41,0h1.62a.4.4,0,0,1,.29.12.41.41,0,0,1,.13.3V20a.41.41,0,0,1-.12.3.38.38,0,0,1-.3.13H37a.45.45,0,0,1-.32-.13.38.38,0,0,1-.13-.3V15.62l-1.94,2.45a.74.74,0,0,1-.61.32.68.68,0,0,1-.34-.08.67.67,0,0,1-.26-.21l-2-2.48V20a.41.41,0,0,1-.12.3.38.38,0,0,1-.3.13H29.36a.42.42,0,0,1-.3-.13A.41.41,0,0,1,28.93,20Z"/><path class="cls-1" d="M43.14,14.22v1h3.38a.49.49,0,0,1,.35.15.5.5,0,0,1,.15.38v1a.53.53,0,0,1-.15.37.5.5,0,0,1-.35.16H43.14v1.07h3.55a.49.49,0,0,1,.36.15.53.53,0,0,1,.15.39v1a.55.55,0,0,1-.15.38.5.5,0,0,1-.36.16H41a.5.5,0,0,1-.36-.16.55.55,0,0,1-.15-.38V12.64a.5.5,0,0,1,.15-.37.49.49,0,0,1,.36-.15h5.66a.49.49,0,0,1,.36.15.5.5,0,0,1,.15.37v1a.52.52,0,0,1-.16.36.47.47,0,0,1-.35.17Z"/><path class="cls-1" d="M55.46,20.38s-.39-.37-1-1.05l-2.84-3c-.12-.12-.2-.18-.23-.18s-.05,0-.06.05a.76.76,0,0,0,0,.17V20a.49.49,0,0,1-.14.34.48.48,0,0,1-.34.14H49.2a.55.55,0,0,1-.4-.18.65.65,0,0,1-.16-.44V12.74a.69.69,0,0,1,.18-.47.56.56,0,0,1,.42-.2h1.48a.85.85,0,0,1,.32,0,1.14,1.14,0,0,1,.3.25l1.8,1.88,2,2,.13.06c.05,0,.08-.07.08-.19V12.56a.45.45,0,0,1,.14-.34.44.44,0,0,1,.32-.15h1.53a.6.6,0,0,1,.45.19.62.62,0,0,1,.2.44v7.14a.65.65,0,0,1-.19.44.61.61,0,0,1-.43.19H56l-.32,0A.56.56,0,0,1,55.46,20.38Z"/><path class="cls-1" d="M65.83,12.1a.49.49,0,0,1,.36.15.46.46,0,0,1,.16.35V14a.53.53,0,0,1-.52.51H63.94v5.43a.56.56,0,0,1-.14.38.43.43,0,0,1-.34.16h-1.6a.43.43,0,0,1-.34-.15.56.56,0,0,1-.14-.38l.08-5.44H59.54a.5.5,0,0,1-.37-.15A.53.53,0,0,1,59,14V12.6a.45.45,0,0,1,.15-.35.5.5,0,0,1,.37-.15Z"/><path class="cls-1" d="M70.16,14.22v1h3.39a.46.46,0,0,1,.34.15.5.5,0,0,1,.15.38v1a.53.53,0,0,1-.15.37.47.47,0,0,1-.34.16H70.16v1.07h3.56a.49.49,0,0,1,.35.15.53.53,0,0,1,.15.39v1a.55.55,0,0,1-.15.38.5.5,0,0,1-.35.16H68.05a.5.5,0,0,1-.35-.16.55.55,0,0,1-.15-.38V12.64a.5.5,0,0,1,.15-.37.49.49,0,0,1,.35-.15h5.67a.49.49,0,0,1,.35.15.5.5,0,0,1,.15.37v1a.48.48,0,0,1-.16.36.47.47,0,0,1-.34.17Z"/><path class="cls-1" d="M80.45,19.75a1.73,1.73,0,0,0-.55-1.14,2,2,0,0,0-1-.37l-.21,0a.56.56,0,0,0-.2,0h0V19.8a1.15,1.15,0,0,1,0,.36.38.38,0,0,1-.22.23,1.45,1.45,0,0,1-.59.09H76.49a.94.94,0,0,1-.59-.14.49.49,0,0,1-.22-.41l0-3.24V12.51a.41.41,0,0,1,.18-.32.69.69,0,0,1,.43-.13H79a4.59,4.59,0,0,1,2.67.6,2.41,2.41,0,0,1,.93,1.94,1.42,1.42,0,0,1,0,.19.45.45,0,0,0,0,.11v.25a2.18,2.18,0,0,1-.36,1.11,3.68,3.68,0,0,1-.81.75h0a2.33,2.33,0,0,1,.93.83A3.38,3.38,0,0,1,82.88,19,4.07,4.07,0,0,1,83,20a.42.42,0,0,1-.14.32.65.65,0,0,1-.41.12H81c-.2,0-.34-.05-.4-.16a.63.63,0,0,1-.09-.33C80.46,19.88,80.46,19.8,80.45,19.75ZM78.66,16a2.37,2.37,0,0,0,1-.2.87.87,0,0,0,.47-.91,1,1,0,0,0-.31-.77,1.29,1.29,0,0,0-.88-.27H78V16h.7Z"/><path class="cls-1" d="M84,19a1,1,0,0,1,.22-.51l.44-.57a2.25,2.25,0,0,1,.31-.39.35.35,0,0,1,.25-.12.63.63,0,0,1,.26.08,2.55,2.55,0,0,1,.43.24s.23.15.61.42a2.25,2.25,0,0,0,1.44.34.61.61,0,0,0,.45-.16.48.48,0,0,0,.17-.36.69.69,0,0,0-.29-.53,1.45,1.45,0,0,0-.82-.28h0a5.7,5.7,0,0,1-1.64-.54A2.15,2.15,0,0,1,85,15.8a2.64,2.64,0,0,1-.3-1.13A2.45,2.45,0,0,1,85,13.23a2.7,2.7,0,0,1,1.1-1,3.53,3.53,0,0,1,1.66-.37,4.82,4.82,0,0,1,1.39.2,4.88,4.88,0,0,1,1,.41A2.71,2.71,0,0,1,91,13a.46.46,0,0,1,.17.31.48.48,0,0,1-.09.26,4.41,4.41,0,0,1-.31.38l-.35.37a1.62,1.62,0,0,1-.26.24.25.25,0,0,1-.17.07.46.46,0,0,1-.22-.07l-.25-.15-.23-.14a2.81,2.81,0,0,0-1.45-.53.86.86,0,0,0-.6.19.56.56,0,0,0-.23.45.67.67,0,0,0,.22.47,1.08,1.08,0,0,0,.61.27,4.94,4.94,0,0,1,2.56,1,2.26,2.26,0,0,1,.85,1.73,2.47,2.47,0,0,1-.45,1.39,3.4,3.4,0,0,1-1.25,1.08,3.86,3.86,0,0,1-1.78.41,5.65,5.65,0,0,1-3.23-1.13C84.14,19.41,84,19.18,84,19Z"/><path class="cls-1" d="M37.06.18a.49.49,0,0,1,.36.15.44.44,0,0,1,.16.34V2.06a.46.46,0,0,1-.16.36.46.46,0,0,1-.36.16H35.17V8a.58.58,0,0,1-.14.39.45.45,0,0,1-.34.15h-1.6a.45.45,0,0,1-.34-.15A.53.53,0,0,1,32.61,8l.09-5.44H30.78a.48.48,0,0,1-.38-.16.49.49,0,0,1-.15-.36V.67A.49.49,0,0,1,30.4.32a.54.54,0,0,1,.38-.14Z"/><path class="cls-1" d="M38.06,4.39a4.28,4.28,0,0,1,.59-2.19A4.44,4.44,0,0,1,40.26.59a4.38,4.38,0,0,1,4.39,0A4.36,4.36,0,0,1,46.26,2.2a4.19,4.19,0,0,1,.6,2.19,4.23,4.23,0,0,1-.6,2.2,4.41,4.41,0,0,1-1.61,1.6,4.38,4.38,0,0,1-4.39,0,4.49,4.49,0,0,1-1.61-1.6A4.32,4.32,0,0,1,38.06,4.39Zm6.26-.11a1.71,1.71,0,0,0-.26-.94,2,2,0,0,0-.7-.69,1.76,1.76,0,0,0-.94-.26,1.79,1.79,0,0,0-1,.26,1.9,1.9,0,0,0-.69.69,1.79,1.79,0,0,0-.25.94,1.86,1.86,0,0,0,.25,1,1.9,1.9,0,0,0,.69.69,1.79,1.79,0,0,0,1,.26,1.76,1.76,0,0,0,.94-.26,2,2,0,0,0,.7-.69A1.78,1.78,0,0,0,44.32,4.28Z"/><path class="cls-1" d="M47.82,8.15V.55A.45.45,0,0,1,48,.2a.69.69,0,0,1,.43-.14H51a4.57,4.57,0,0,1,2.69.63,2.37,2.37,0,0,1,1,2s0,.1,0,.2,0,.23,0,.38a3.94,3.94,0,0,1,0,.43,3.08,3.08,0,0,1-.45,1.49,3,3,0,0,1-1.33,1.15,5.45,5.45,0,0,1-2.39.45V8a.53.53,0,0,1-.25.44,1,1,0,0,1-.6.18h-1.2A.79.79,0,0,1,48,8.5.43.43,0,0,1,47.82,8.15ZM50,4.4h.71a2.34,2.34,0,0,0,1-.21q.45-.21.45-1a1.07,1.07,0,0,0-.28-.82,1.39,1.39,0,0,0-.89-.3H50s.05,0,.05,0V4.45A0,0,0,0,0,50,4.4Z"/><path class="cls-2" d="M40.2,6.19,43,5.75,42,3.64,40.1,6A.11.11,0,0,0,40.2,6.19Z"/><circle class="cls-1" cx="41.3" cy="4.2" r="0.35"/><circle class="cls-1" cx="42.34" cy="4.2" r="0.35"/><circle class="cls-1" cx="43.38" cy="4.2" r="0.35"/></g></g></svg>